<svg xmlns="http://www.w3.org/2000/svg" version="1.1" xmlns:xlink="http://www.w3.org/1999/xlink" xmlns:svgjs="http://svgjs.dev/svgjs" width="2000" height="1252" viewBox="0 0 2000 1252"><g transform="matrix(1,0,0,1,-1.2121212121212466,-2.01935483870966)"><svg viewBox="0 0 396 248" data-background-color="#ffffff" preserveAspectRatio="xMidYMid meet" height="1252" width="2000" xmlns="http://www.w3.org/2000/svg" xmlns:xlink="http://www.w3.org/1999/xlink"><g id="tight-bounds" transform="matrix(1,0,0,1,0.2400000000000091,0.4000000000000057)"><svg viewBox="0 0 395.52 247.2" height="247.2" width="395.52"><g><svg></svg></g><g><svg viewBox="0 0 395.52 247.2" height="247.2" width="395.52"><g transform="matrix(1,0,0,1,80.762443774763,47.215199999999996)"><svg viewBox="0 0 233.99511245047398 152.7696" height="152.7696" width="233.99511245047398"><g><svg viewBox="0 0 233.99511245047398 152.7696" height="152.7696" width="233.99511245047398"><g><svg viewBox="0 0 244.43135999999996 159.58316694567503" height="152.7696" width="233.99511245047398"><g><svg viewBox="0 0 244.43135999999996 159.58316694567503" height="159.58316694567503" width="244.43135999999996"><g id="textblocktransform"><svg viewBox="0 0 244.43135999999996 159.58316694567503" height="159.58316694567503" width="244.43135999999996" id="textblock"><g><svg viewBox="0 0 244.43135999999996 86.44452717313645" height="86.44452717313645" width="244.43135999999996"><g transform="matrix(1,0,0,1,0,0)"><svg width="244.43135999999996" viewBox="1.34 -35.5 102.50999999999999 36.26" height="86.44452717313645" data-palette-color="#5a4bff"><path d="M27.49-9.69L31.2-3.59Q28.76-1.49 25.73-0.37 22.71 0.76 19.46 0.76L19.46 0.76Q16.97 0.76 14.66 0.11 12.35-0.54 10.34-1.72 8.33-2.91 6.67-4.57 5-6.23 3.82-8.24 2.64-10.25 1.99-12.56 1.34-14.87 1.34-17.36L1.34-17.36Q1.34-19.85 1.99-22.17 2.64-24.49 3.82-26.5 5-28.52 6.67-30.18 8.33-31.84 10.34-33.02 12.35-34.2 14.66-34.85 16.97-35.5 19.46-35.5L19.46-35.5Q22.71-35.5 25.73-34.39 28.76-33.28 31.2-31.15L31.2-31.15 27.49-25.05Q25.95-26.71 23.85-27.6 21.75-28.49 19.46-28.49L19.46-28.49Q17.14-28.49 15.11-27.61 13.09-26.73 11.57-25.23 10.06-23.73 9.18-21.69 8.3-19.65 8.3-17.36L8.3-17.36Q8.3-15.06 9.18-13.05 10.06-11.04 11.57-9.52 13.09-8.01 15.11-7.13 17.14-6.25 19.46-6.25L19.46-6.25Q21.75-6.25 23.85-7.14 25.95-8.03 27.49-9.69L27.49-9.69ZM69.99-35.01L69.99-10.01Q69.99-7.84 69.17-5.92 68.36-4 66.93-2.58 65.5-1.15 63.58-0.33 61.67 0.49 59.49 0.49L59.49 0.49Q57.54 0.49 55.75-0.2 53.95-0.88 52.51-2.2L52.51-2.2Q51.07-0.88 49.27-0.2 47.46 0.49 45.51 0.49L45.51 0.49Q43.33 0.49 41.42-0.33 39.5-1.15 38.07-2.58 36.64-4 35.83-5.92 35.01-7.84 35.01-10.01L35.01-10.01 35.01-35.01 42.01-35.01 42.01-10.01Q42.01-9.28 42.28-8.63 42.55-7.98 43.03-7.51 43.5-7.03 44.14-6.76 44.77-6.49 45.51-6.49L45.51-6.49Q46.24-6.49 46.87-6.76 47.51-7.03 47.98-7.51 48.46-7.98 48.73-8.63 49-9.28 49-10.01L49-10.01 49-35.01 56-35.01 56-10.01Q56-9.28 56.27-8.63 56.54-7.98 57.02-7.51 57.49-7.03 58.13-6.76 58.76-6.49 59.49-6.49L59.49-6.49Q60.23-6.49 60.86-6.76 61.5-7.03 61.97-7.51 62.45-7.98 62.73-8.63 63.01-9.28 63.01-10.01L63.01-10.01 63.01-35.01 69.99-35.01ZM82.83-13.99L96.85-13.99 96.85-21Q96.85-22.44 96.3-23.72 95.75-25 94.79-25.95 93.84-26.9 92.56-27.45 91.28-28 89.84-28L89.84-28Q88.4-28 87.12-27.45 85.83-26.9 84.88-25.95 83.93-25 83.38-23.72 82.83-22.44 82.83-21L82.83-21 82.83-13.99ZM103.85-21L103.85 0 96.85 0 96.85-7.01 82.83-7.01 82.83 0 75.85 0 75.85-21Q75.85-23.9 76.95-26.45 78.05-29 79.94-30.91 81.83-32.81 84.38-33.91 86.93-35.01 89.84-35.01L89.84-35.01Q92.74-35.01 95.3-33.91 97.85-32.81 99.75-30.91 101.66-29 102.75-26.45 103.85-23.9 103.85-21L103.85-21Z" opacity="1" transform="matrix(1,0,0,1,0,0)" fill="#5a4bff" class="wordmark-text-0" data-fill-palette-color="primary" id="text-0"></path></svg></g></svg></g><g transform="matrix(1,0,0,1,179.8764585865559,106.85200537006182)"><svg viewBox="0 0 64.55490141344404 52.731161575613235" height="52.731161575613235" width="64.55490141344404"><g transform="matrix(1,0,0,1,0,0)"><svg width="64.55490141344404" viewBox="4.66 -8.96 11.600000000000001 9.47" height="52.731161575613235" data-palette-color="#5a4bff"><path d="M4.66-4.22L4.66-4.22Q4.66-5.2 5.07-6.07 5.47-6.93 6.23-7.58 6.98-8.23 8.06-8.59 9.13-8.96 10.47-8.96L10.47-8.96Q11.82-8.96 12.89-8.59 13.96-8.23 14.71-7.58 15.45-6.93 15.86-6.07 16.26-5.2 16.26-4.22L16.26-4.22Q16.26-3.25 15.86-2.38 15.45-1.51 14.71-0.88 13.96-0.24 12.89 0.13 11.82 0.51 10.47 0.51L10.47 0.51Q9.13 0.51 8.06 0.13 6.98-0.24 6.23-0.88 5.47-1.51 5.07-2.38 4.66-3.25 4.66-4.22Z" opacity="1" transform="matrix(1,0,0,1,0,0)" fill="#5a4bff" class="slogan-text-1" data-fill-palette-color="secondary" id="text-1"></path></svg></g></svg></g></svg></g></svg></g></svg></g></svg></g></svg></g><path d="M256.75 41.215L256.75 0 9.55 0 9.55 247.2 256.75 247.2 256.75 205.985 249.287 205.985 249.287 239.737 17.012 239.737 17.012 7.463 249.287 7.463 249.287 41.215Z" fill="#5a4bff" stroke="transparent" data-fill-palette-color="tertiary"></path></svg></g><defs></defs></svg><rect width="395.52" height="247.2" fill="none" stroke="none" visibility="hidden"></rect></g></svg></g></svg>